<svg width="165" height="57" viewBox="0 0 165 57" fill="none" xmlns="http://www.w3.org/2000/svg">
<path d="M2.81219 14.3525C4.40412 14.3525 5.56188 13.1466 5.56188 11.4886C5.56188 9.8306 4.40412 8.62476 2.81219 8.62476C1.36499 8.47403 0.0625 9.8306 0.0625 11.3379C0.0625 12.9959 1.36499 14.3525 2.81219 14.3525Z" fill="#FF594B"/>
<path d="M6.14025 33.947C5.27193 33.947 4.69305 33.4948 4.69305 32.5905V19.3263C4.83777 18.8741 4.40361 18.4219 3.96944 18.4219H1.50919C1.07503 18.4219 0.640869 18.8741 0.640869 19.3263V33.0426C0.640869 36.5094 2.37752 38.1675 4.83777 38.1675C5.41665 38.1675 5.85081 38.1675 6.28497 38.0167C6.57442 37.866 6.71914 37.7153 6.71914 37.4138V34.7007C6.86386 34.2485 6.57441 33.947 6.14025 33.947Z" fill="#FF594B"/>
<path d="M35.8086 18.4219H33.2036C32.7694 18.4219 32.48 18.7233 32.3353 19.0248L28.4278 31.9875L24.3756 19.1755C24.2309 18.8741 23.9415 18.5726 23.5073 18.5726H21.7707C21.3365 18.5726 21.0471 18.8741 20.9024 19.1755L16.8502 31.9875L12.9427 19.1755C12.9427 18.7233 12.5086 18.4219 12.2191 18.4219H9.61415C9.03526 18.4219 8.6011 19.0248 8.74582 19.6277L14.5346 37.4138C14.6794 37.7153 14.9688 38.0167 15.403 38.0167H18.0079C18.4421 38.0167 18.7315 37.7153 18.8763 37.4138L22.7837 25.3554L26.6912 37.4138C26.8359 37.7153 27.1253 38.0167 27.5595 38.0167H30.1645C30.5986 38.0167 30.8881 37.7153 31.0328 37.4138L36.6769 19.6277C36.8216 19.0248 36.3875 18.4219 35.8086 18.4219Z" fill="#FF594B"/>
<path d="M48.5439 17.9688C43.0445 17.9688 38.7029 22.4906 38.7029 28.2184C38.7029 33.9461 43.0445 38.468 48.5439 38.468C54.0433 38.468 58.3849 33.9461 58.3849 28.2184C58.3849 22.4906 54.0433 17.9688 48.5439 17.9688ZM48.5439 34.3983C45.2153 34.3983 42.8998 31.6851 42.8998 28.2184C42.8998 24.7516 45.2153 22.0384 48.5439 22.0384C51.8725 22.0384 54.188 24.7516 54.188 28.2184C54.188 31.6851 51.7277 34.3983 48.5439 34.3983Z" fill="#FF594B"/>
<path d="M70.9757 22.0384C73.0017 22.0384 74.7384 23.0936 75.7514 24.6009C76.0409 24.9023 76.475 25.053 76.7645 24.9023L79.08 23.8472C79.3694 23.6965 79.5142 23.395 79.5142 22.9428C79.5142 22.7921 79.5142 22.6414 79.3695 22.4906C79.3695 22.4906 77.0539 17.9688 70.9757 17.9688C65.3316 17.9688 60.8452 22.3399 60.8452 28.2184C60.8452 34.0968 65.1868 38.468 70.9757 38.3172C76.7645 38.3172 79.2247 33.7954 79.2247 33.7954C79.3695 33.6446 79.3695 33.4939 79.3695 33.3432C79.3695 33.0417 79.2247 32.7403 78.7906 32.4388L76.7645 31.5344C76.3303 31.3837 75.8962 31.3837 75.7514 31.8359C74.7384 33.3432 73.1465 34.3983 71.1204 34.3983C67.7918 34.3983 65.3316 31.5344 65.3316 28.0676C65.1868 24.6009 67.6471 22.0384 70.9757 22.0384Z" fill="#FF594B"/>
<path d="M161.136 0.333984H113.668C111.931 0.333984 110.629 1.69055 110.629 3.49931V52.9386C110.629 54.7474 111.931 56.1039 113.668 56.1039H161.281C163.018 56.1039 164.176 54.7474 164.176 52.9386V3.49931C164.176 1.69055 162.873 0.333984 161.136 0.333984ZM157.953 49.6226H116.997V6.81536L157.953 6.96609V49.6226Z" fill="#FF594B"/>
<path d="M142.468 36.0565L147.533 38.1667C147.967 38.3174 148.401 38.0159 148.401 37.5638V18.5718C148.401 18.1196 147.967 17.8182 147.533 17.9689L142.468 20.2298C142.323 20.3806 142.178 20.5313 142.178 20.8328V35.4535C142.178 35.755 142.323 35.9057 142.468 36.0565Z" fill="#FF594B"/>
<path d="M127.272 38.3171L132.337 36.2068C132.627 36.0561 132.627 35.9054 132.627 35.6039V20.9832C132.627 20.6817 132.482 20.531 132.337 20.3802L127.272 18.1193C126.838 17.9686 126.404 18.27 126.404 18.7222V37.7141C126.404 38.1663 126.838 38.4678 127.272 38.3171Z" fill="#FF594B"/>
<path d="M102.669 33.9474C101.801 33.9474 101.367 33.4952 101.222 32.5908V19.4773C101.222 19.0251 100.788 18.5729 100.354 18.5729H98.0382C97.604 18.5729 97.1699 19.0251 97.1699 19.4773V20.3817C96.0121 19.0251 93.986 18.2715 91.6705 18.2715C86.1711 18.2715 82.2637 22.9441 82.2637 28.5211C82.2637 34.0981 86.1711 38.7707 91.6705 38.7707C93.6966 38.7707 95.7227 38.3185 98.0382 35.7561C98.4724 37.4141 99.7749 38.62 101.367 38.62C101.946 38.62 102.38 38.62 102.814 38.4693C103.103 38.3185 103.248 38.1678 103.248 37.8663V35.1532C103.393 34.2488 103.103 33.9474 102.669 33.9474ZM92.2494 34.5503C88.9208 34.5503 86.4606 31.5357 86.75 27.7675C86.8947 24.3007 89.9339 21.4368 93.2624 22.0397C95.1438 22.3412 96.3016 23.3963 97.1699 24.6021V31.6864C96.1568 33.1937 94.5649 34.3996 92.2494 34.5503Z" fill="#FF594B"/>
</svg>
