<?xml version="1.0" encoding="UTF-8" standalone="no"?>
<svg width="179px" height="48px" viewBox="0 0 179 48" version="1.1" xmlns="http://www.w3.org/2000/svg" xmlns:xlink="http://www.w3.org/1999/xlink">
    <!-- Generator: Sketch 47.1 (45422) - http://www.bohemiancoding.com/sketch -->
    <title>logo</title>
    <desc>Created with Sketch.</desc>
    <defs>
        <polygon id="path-1" points="21.0928 0.91 0 0.91 0 48 10.5464 48 21.0928 48"></polygon>
        <polygon id="path-3" points="0.485133618 0.91 25.1855 0.91 25.1855 48 0.485133618 48"></polygon>
        <polygon id="path-5" points="8.72 0.4827 8.72 16.3147 0.4573 16.3147 0.4573 0.4827"></polygon>
    </defs>
    <g id="Page-1" stroke="none" stroke-width="1" fill="none" fill-rule="evenodd">
        <g id="logo" transform="translate(0.000000, -1.000000)">
            <g id="Page-1">
                <path d="M17.9168,38.8087 C17.9208,38.8157 17.9248,38.8217 17.9278,38.8287 C17.9208,38.8157 17.9138,38.8037 17.9068,38.7907 L17.9168,38.8087 Z" id="Fill-1" fill="#163863" fill-rule="nonzero"></path>
                <g id="Group-5" transform="translate(0.000000, 0.090400)">
                    <g id="Fill-3-Clipped">
                        <g>
                            <mask id="mask-2" fill="white">
                                <use xlink:href="#path-1"></use>
                            </mask>
                            <g id="path-1"></g>
                            <path d="M3.6068,48 C5.5988,48 7.2138,46.385 7.2138,44.393 L7.2138,18.83 L17.8968,38.682 C17.3618,37.657 17.3278,36.394 17.9168,35.3 L18.6348,33.965 L4.3278,7.379 L4.3278,44.393 C4.3278,44.791 4.0048,45.115 3.6068,45.115 C3.2088,45.115 2.8858,44.791 2.8858,44.393 L2.8858,4.517 C2.8858,4.186 3.1098,3.898 3.4308,3.817 C3.7508,3.736 4.0858,3.884 4.2418,4.175 L19.4548,32.442 L21.0928,29.398 L6.7828,2.808 C5.9998,1.352 4.3278,0.615 2.7258,1.019 C1.1228,1.423 -0.0002,2.864 -0.0002,4.517 L-0.0002,44.393 C-0.0002,46.385 1.6148,48 3.6068,48" id="Fill-3" fill="#00CDBE" fill-rule="nonzero" mask="url(#mask-2)"></path>
                        </g>
                    </g>
                </g>
                <g id="Group-8" transform="translate(17.000000, 0.090400)">
                    <g id="Fill-6-Clipped">
                        <g>
                            <mask id="mask-4" fill="white">
                                <use xlink:href="#path-3"></use>
                            </mask>
                            <g id="path-3"></g>
                            <path d="M20.8575,44.3931 L20.8575,7.3791 L4.7285,37.3511 C4.5395,37.7011 4.1015,37.8331 3.7505,37.6441 C3.4005,37.4551 3.2685,37.0181 3.4575,36.6671 L20.9435,4.1751 C21.1005,3.8841 21.4345,3.7361 21.7555,3.8171 C22.0755,3.8981 22.3005,4.1861 22.3005,4.5171 L22.3005,44.3931 C22.3005,44.7911 21.9775,45.1141 21.5785,45.1141 C21.1805,45.1141 20.8575,44.7911 20.8575,44.3931 M25.1855,44.3931 L25.1855,4.5171 C25.1855,2.8641 24.0625,1.4231 22.4605,1.0191 C20.8585,0.6151 19.1855,1.3521 18.4025,2.8071 L0.9165,35.3001 C-0.0275,37.0541 0.6295,39.2411 2.3835,40.1851 C4.1375,41.1291 6.3255,40.4721 7.2685,38.7181 L17.9725,18.8301 L17.9725,44.3931 C17.9725,46.3851 19.5865,48.0001 21.5785,48.0001 C23.5705,48.0001 25.1855,46.3851 25.1855,44.3931" id="Fill-6" fill="#FFFFFF" fill-rule="nonzero" mask="url(#mask-4)"></path>
                        </g>
                    </g>
                </g>
            </g>
            <g id="Page-1" transform="translate(17.000000, 16.000000)">
                <path d="M0.9764,22.9345 C0.9804,22.9415 0.9844,22.9475 0.9874,22.9545 C0.9804,22.9415 0.9734,22.9295 0.9664,22.9165 L0.9764,22.9345 Z" id="Fill-1" fill="#133764" fill-rule="nonzero"></path>
                <path d="M44.4508,0.7294 L41.5928,0.7294 C41.2348,0.7294 41.0118,1.0204 40.9448,1.3544 L38.8238,11.0014 L36.7018,1.3544 C36.6348,1.0204 36.4118,0.7294 36.0538,0.7294 L33.1958,0.7294 C32.8388,0.7294 32.5478,1.0204 32.5478,1.3544 L32.5478,15.9364 C32.5478,16.2714 32.8388,16.5624 33.1958,16.5624 L34.4018,16.5624 C34.7588,16.5624 35.0498,16.2714 35.0498,15.9364 L35.0498,3.9674 L37.7738,15.9364 C37.8408,16.2714 38.0638,16.5624 38.4218,16.5624 L39.2258,16.5624 C39.5828,16.5624 39.8058,16.2714 39.8728,15.9364 L42.5968,3.9674 L42.5968,15.9364 C42.5968,16.2714 42.8878,16.5624 43.2448,16.5624 L44.4508,16.5624 C44.8078,16.5624 45.0988,16.2714 45.0988,15.9364 L45.0988,1.3544 C45.0988,1.0204 44.8078,0.7294 44.4508,0.7294" id="Fill-6" fill="#00CDBE" fill-rule="nonzero"></path>
                <path d="M50.2337,10.9348 L51.8637,3.5208 L53.4937,10.9348 L50.2337,10.9348 Z M53.8737,1.1318 C53.8287,0.9078 53.6277,0.7298 53.3597,0.7298 L50.3677,0.7298 C50.0997,0.7298 49.8987,0.9078 49.8537,1.1318 L46.4817,15.7138 C46.4377,15.8918 46.4147,16.0708 46.4147,16.0938 C46.4147,16.3388 46.6157,16.5618 46.9067,16.5618 L48.5587,16.5618 C48.8267,16.5618 48.9827,16.3388 49.0497,16.0708 L49.7197,13.2568 L54.0077,13.2568 L54.6777,16.0708 C54.7447,16.3388 54.9007,16.5618 55.1687,16.5618 L56.8217,16.5618 C57.1117,16.5618 57.3127,16.3388 57.3127,16.0938 C57.3127,16.0708 57.2907,15.8918 57.2457,15.7138 L53.8737,1.1318 Z" id="Fill-8" fill="#00CDBE" fill-rule="nonzero"></path>
                <path d="M64.9266,6.0218 C64.9266,6.9148 64.3456,7.4958 63.4526,7.4958 L61.2646,7.4958 L61.2646,3.0078 L63.4526,3.0078 C64.3456,3.0078 64.9266,3.5878 64.9266,4.4588 L64.9266,6.0218 Z M65.5296,8.5898 C66.9806,8.4338 67.4496,7.2948 67.4496,5.8658 L67.4496,3.6318 C67.4496,2.0918 66.3336,0.7298 64.6136,0.7298 L59.1656,0.7298 C58.8076,0.7298 58.5176,1.0198 58.5176,1.3548 L58.5176,15.9368 C58.5176,16.2718 58.8076,16.5618 59.1656,16.5618 L60.6166,16.5618 C60.9736,16.5618 61.2646,16.2718 61.2646,15.9368 L61.2646,9.7738 L63.4526,9.7738 C64.3456,9.7738 64.9936,10.3548 64.9936,11.2478 L64.9936,15.9368 C64.9936,16.2718 65.2836,16.5618 65.6416,16.5618 L67.0926,16.5618 C67.4496,16.5618 67.7406,16.2718 67.7406,15.9368 L67.7406,11.6938 C67.7406,10.1978 67.3156,8.7688 65.5296,8.5898 L65.5296,8.5898 Z" id="Fill-10" fill="#00CDBE" fill-rule="nonzero"></path>
                <path d="M74.8631,7.8976 L78.2351,1.5786 C78.3241,1.3996 78.3691,1.2206 78.3691,1.1086 C78.3691,0.7736 78.0341,0.7296 77.6991,0.7296 L76.1811,0.7296 C75.8231,0.7296 75.6671,1.0196 75.4881,1.3546 L72.2051,7.2726 L72.2051,1.3546 C72.2051,1.0196 71.9151,0.7296 71.5581,0.7296 L70.1061,0.7296 C69.7491,0.7296 69.4591,1.0196 69.4591,1.3546 L69.4591,15.9366 C69.4591,16.2716 69.7491,16.5626 70.1061,16.5626 L71.5581,16.5626 C71.9151,16.5626 72.2051,16.2716 72.2051,15.9366 L72.2051,8.8576 L75.8231,15.9146 C75.9801,16.2276 76.2481,16.5626 76.5821,16.5626 L78.2351,16.5626 C78.6371,16.5626 78.8831,16.3616 78.8831,16.0486 C78.8831,15.9366 78.8831,15.8246 78.8161,15.6916 L74.8631,7.8976 Z" id="Fill-12" fill="#00CDBE" fill-rule="nonzero"></path>
                <path d="M87.6134,14.1948 L82.7224,14.1948 L82.7224,9.3938 L86.8314,9.3938 C87.1664,9.3938 87.4574,9.1038 87.4574,8.7468 L87.4574,7.6968 C87.4574,7.3398 87.1664,7.0488 86.8314,7.0488 L82.7224,7.0488 L82.7224,3.0968 L87.5014,3.0968 C87.8364,3.0968 88.1274,2.8058 88.1274,2.4488 L88.1274,1.3768 C88.1274,1.0198 87.8364,0.7298 87.5014,0.7298 L80.6234,0.7298 C80.2664,0.7298 79.9764,1.0198 79.9764,1.3548 L79.9764,15.9368 C79.9764,16.2718 80.2664,16.5618 80.6234,16.5618 L87.6134,16.5618 C87.9484,16.5618 88.2384,16.2718 88.2384,15.9148 L88.2384,14.8428 C88.2384,14.4858 87.9484,14.1948 87.6134,14.1948" id="Fill-14" fill="#00CDBE" fill-rule="nonzero"></path>
                <path d="M98.019,0.7294 L90.181,0.7294 C89.846,0.7294 89.555,1.0204 89.555,1.3774 L89.555,2.4264 C89.555,2.7844 89.846,3.0744 90.181,3.0744 L92.726,3.0744 L92.726,15.9364 C92.726,16.2714 93.017,16.5624 93.374,16.5624 L94.825,16.5624 C95.183,16.5624 95.473,16.2714 95.473,15.9364 L95.473,3.0744 L98.019,3.0744 C98.354,3.0744 98.644,2.7844 98.644,2.4264 L98.644,1.3774 C98.644,1.0204 98.354,0.7294 98.019,0.7294" id="Fill-16" fill="#00CDBE" fill-rule="nonzero"></path>
                <path d="M101.8536,0.7294 L100.4026,0.7294 C100.0446,0.7294 99.7546,1.0204 99.7546,1.3544 L99.7546,15.9364 C99.7546,16.2714 100.0446,16.5624 100.4026,16.5624 L101.8536,16.5624 C102.2116,16.5624 102.5016,16.2714 102.5016,15.9364 L102.5016,1.3544 C102.5016,1.0204 102.2116,0.7294 101.8536,0.7294" id="Fill-21" fill="#FFFFFF" fill-rule="nonzero"></path>
                <path d="M114.0687,0.7516 L112.6177,0.7516 C112.2597,0.7516 111.9697,1.0426 111.9697,1.3766 L111.9697,11.2476 L107.6147,1.3546 C107.4807,1.0426 107.3467,0.7296 106.9007,0.7296 L105.0687,0.7296 C104.7117,0.7296 104.4217,1.0196 104.4217,1.3546 L104.4217,15.9366 C104.4217,16.2716 104.7117,16.5626 105.0687,16.5626 L106.5207,16.5626 C106.8787,16.5626 107.1687,16.2716 107.1687,15.9366 L107.1687,6.0436 L111.5227,15.9366 C111.6567,16.2496 111.7907,16.5626 112.2377,16.5626 L114.0687,16.5626 C114.4257,16.5626 114.7167,16.2716 114.7167,15.9366 L114.7167,1.3766 C114.7167,1.0426 114.4257,0.7516 114.0687,0.7516" id="Fill-23" fill="#FFFFFF" fill-rule="nonzero"></path>
                <path d="M125.5461,0.7294 L124.1171,0.7294 C123.7601,0.7294 123.4251,1.0204 123.3571,1.3774 L120.9461,14.5524 L118.5341,1.3774 C118.4671,1.0204 118.1321,0.7294 117.7751,0.7294 L116.3461,0.7294 C116.0331,0.7294 115.7871,0.9524 115.7871,1.2654 C115.7871,1.2874 115.8101,1.4214 115.8321,1.5334 L118.5571,16.0934 C118.6011,16.3614 118.8921,16.5624 119.1821,16.5624 L122.7101,16.5624 C123.0001,16.5624 123.2911,16.3614 123.3351,16.0934 L126.0601,1.5334 C126.0821,1.4214 126.1041,1.2874 126.1041,1.2654 C126.1041,0.9524 125.8591,0.7294 125.5461,0.7294" id="Fill-25" fill="#FFFFFF" fill-rule="nonzero"></path>
                <path d="M133.5624,12.6539 C133.5624,13.8149 132.8254,14.6419 131.6864,14.6419 C130.5484,14.6419 129.8104,13.8149 129.8104,12.6539 L129.8104,4.5929 C129.8104,3.4319 130.5484,2.6049 131.6864,2.6049 C132.8254,2.6049 133.5624,3.4319 133.5624,4.5929 L133.5624,12.6539 Z M131.6864,0.2379 C129.1184,0.2379 127.0864,1.8009 127.0864,4.5929 L127.0864,12.6539 C127.0864,15.4459 129.1184,17.0089 131.6864,17.0089 C134.2554,17.0089 136.2874,15.4459 136.2874,12.6539 L136.2874,4.5929 C136.2874,1.8009 134.2554,0.2379 131.6864,0.2379 L131.6864,0.2379 Z" id="Fill-27" fill="#FFFFFF" fill-rule="nonzero"></path>
                <path d="M140.2162,0.7294 L138.7652,0.7294 C138.4072,0.7294 138.1172,1.0204 138.1172,1.3544 L138.1172,15.9364 C138.1172,16.2714 138.4072,16.5624 138.7652,16.5624 L140.2162,16.5624 C140.5742,16.5624 140.8642,16.2714 140.8642,15.9364 L140.8642,1.3544 C140.8642,1.0204 140.5742,0.7294 140.2162,0.7294" id="Fill-29" fill="#FFFFFF" fill-rule="nonzero"></path>
                <path d="M147.2949,0.2384 C144.7269,0.2384 142.6949,1.8014 142.6949,4.5924 L142.6949,12.6544 C142.6949,15.4454 144.7269,17.0084 147.2949,17.0084 C149.8629,17.0084 151.8949,15.4454 151.8949,12.6544 L151.8949,12.2744 C151.8949,11.9394 151.6049,11.6494 151.2479,11.6494 L149.8179,11.6494 C149.4609,11.6494 149.1709,11.9394 149.1709,12.2744 L149.1709,12.6544 C149.1709,13.7934 148.4119,14.6424 147.2949,14.6424 C146.1559,14.6424 145.4189,13.8154 145.4189,12.6544 L145.4189,4.5924 C145.4189,3.4544 146.1789,2.6054 147.2949,2.6054 C148.4339,2.6054 149.1709,3.4314 149.1709,4.5924 L149.1709,4.9724 C149.1709,5.3074 149.4609,5.5974 149.8179,5.5974 L151.2479,5.5974 C151.6049,5.5974 151.8949,5.3074 151.8949,4.9724 L151.8949,4.5924 C151.8949,1.8014 149.8629,0.2384 147.2949,0.2384" id="Fill-31" fill="#FFFFFF" fill-rule="nonzero"></path>
                <g id="Group-35" transform="translate(153.000000, 0.247100)">
                    <g id="Fill-33-Clipped">
                        <g>
                            <mask id="mask-6" fill="white">
                                <use xlink:href="#path-5"></use>
                            </mask>
                            <g id="path-7"></g>
                            <path d="M8.0953,13.9477 L3.2043,13.9477 L3.2043,9.1467 L7.3133,9.1467 C7.6483,9.1467 7.9383,8.8567 7.9383,8.4997 L7.9383,7.4497 C7.9383,7.0927 7.6483,6.8017 7.3133,6.8017 L3.2043,6.8017 L3.2043,2.8497 L7.9833,2.8497 C8.3183,2.8497 8.6083,2.5587 8.6083,2.2017 L8.6083,1.1297 C8.6083,0.7727 8.3183,0.4827 7.9833,0.4827 L1.1053,0.4827 C0.7483,0.4827 0.4573,0.7727 0.4573,1.1077 L0.4573,15.6897 C0.4573,16.0247 0.7483,16.3147 1.1053,16.3147 L8.0953,16.3147 C8.4303,16.3147 8.7203,16.0247 8.7203,15.6677 L8.7203,14.5957 C8.7203,14.2387 8.4303,13.9477 8.0953,13.9477" id="Fill-33" fill="#FFFFFF" fill-rule="nonzero" mask="url(#mask-6)"></path>
                        </g>
                    </g>
                </g>
            </g>
        </g>
    </g>
</svg>